Title: 
Lore

Country: 
Australia,2012

Language:
German

Subtitle:
English

Director:
Cate Shortland

Writers:
Cate Shortland (screenplay), Robin Mukherjee (screenplay)

Stars:
Saskia Rosendahl, Kai-Peter Malina, Nele Trebs 

Synopsis:
As the Allies sweep across Germany, Lore leads her siblings on a journey that exposes them to the truth of their parents' beliefs. An encounter with a mysterious refugee forces Lore to rely on a person she has always been taught to hate. 

Trivia:
The official entry of Australia to the Best Foreign Language Film of the 85th Academy Awards 2013. Select from Cannes Film Festival 2012. Prize 12 wins.

Imdb: 
http://www.imdb.com/title/tt1996310/?ref_=fn_al_tt_1

Trailer: 
http://www.bandes-annonces.fr/film-2013/bande-annonce-lore.html 

Media Info:

General
Complete name                            : Lore.2012.DVDRip.SUBBED.XviD.AC3.HORiZON-ArtSubs
Format                                   : AVI
Format/Info                              : Audio Video Interleave
File size                                : 1.46 GiB
Duration                                 : 1h 44mn
Overall bit rate                         : 1 996 Kbps
Writing application                      : FairUse Wizard - http://fairusewizard.com
Writing library                          : The best and REALLY easy backup tool

Video
ID                                       : 0
Format                                   : MPEG-4 Visual
Format profile                           : Advanced Simple@L5
Format settings, BVOP                    : 1
Format settings, QPel                    : No
Format settings, GMC                     : No warppoints
Format settings, Matrix                  : Default (MPEG)
Muxing mode                              : Packed bitstream
Codec ID                                 : XVID
Codec ID/Hint                            : XviD
Duration                                 : 1h 44mn
Bit rate                                 : 1 795 Kbps
Width                                    : 688 pixels
Height                                   : 368 pixels
Display aspect ratio                     : 1.85:1
Frame rate                               : 23.976 fps
Color space                              : YUV
Chroma subsampling                       : 4:2:0
Bit depth                                : 8 bits
Scan type                                : Progressive
Compression mode                         : Lossy
Bits/(Pixel*Frame)                       : 0.296
Stream size                              : 1.31 GiB (90%)
Writing library                          : XviD 1.2.0.dev47 (UTC 2006-11-01)

Audio
ID                                       : 1
Format                                   : AC-3
Format/Info                              : Audio Coding 3
Mode extension                           : CM (complete main)
Format settings, Endianness              : Big
Codec ID                                 : 2000
Duration                                 : 1h 44mn
Bit rate mode                            : Constant
Bit rate                                 : 192 Kbps
Channel(s)                               : 2 channels
Channel positions                        : Front: L R
Sampling rate                            : 48.0 KHz
Bit depth                                : 16 bits
Compression mode                         : Lossy
Stream size                              : 144 MiB (10%)
Alignment                                : Split accross interleaves
Interleave, duration                     : 42 ms (1.00 video frame)
Interleave, preload duration             : 500 ms

